<?xml version="1.0"?>
<svg width="514" height="174" xmlns="http://www.w3.org/2000/svg" xmlns:svg="http://www.w3.org/2000/svg">
 <!-- Created with SVG-edit - https://github.com/SVG-Edit/svgedit-->
 <g class="layer">
  <title>Layer 1</title>
  <g id="svg_2">
   <rect fill="#000000" height="167.493187" id="svg_4" stroke="#000000" stroke-width="0" width="513.999996" x="0" y="6.739928"/>
   <text fill="#ffffff" font-family="serif" font-size="24" id="svg_1" stroke="#000000" stroke-width="0" text-anchor="middle" transform="matrix(7.39792 0 0 3.82082 -465.101 -274.014)" x="107.896649" xml:space="preserve" y="93.117831">Juan</text>
   <g id="svg_12">
    <ellipse cx="86.618516" cy="94.670986" fill="#ffffff" id="svg_3" rx="63.774072" ry="58.159455" stroke="#000000" stroke-width="2"/>
    <polygon fill="#000000" id="svg_5" points="85.68199157714844,68.97080683708191 111.61076354980469,85.50195002555847 102.5705337524414,113.47746729850769 71.05464172363281,114.23615717887878 60.616920471191406,86.72955012321472 85.68199157714844,68.97080683708191 " stroke="#000000" stroke-width="0"/>
    <polygon fill="#000000" id="svg_7" points="85.82249450683594,71.77957606315613 59.73530578613281,58.89580225944519 68.4887466430664,35.9339759349823 99.98580169677734,34.62654948234558 110.69866943359375,56.78034281730652 85.82249450683594,71.77957606315613 " stroke="#000000" stroke-width="0"/>
    <polygon fill="#000000" id="svg_8" points="111.87889862060547,86.04700922966003 115.88475036621094,57.97092127799988 140.20433044433594,59.26211619377136 151.22879028320312,88.13615870475769 133.7227325439453,104.69015955924988 111.87889862060547,86.04700922966003 " stroke="#000000" stroke-width="0"/>
    <polygon fill="#000000" id="svg_9" points="103.32818603515625,112.24162745475769 131.42588806152344,106.10139155387878 137.95350646972656,128.38307642936707 113.89012908935547,148.29413294792175 92.49048614501953,138.31819605827332 103.32818603515625,112.24162745475769 " stroke="#000000" stroke-width="0"/>
    <polygon fill="#000000" id="svg_10" points="60.988739013671875,86.57236170768738 47.587303161621094,111.76985621452332 24.896320343017578,102.68208765983582 24.27393341064453,71.86815333366394 46.580257415771484,61.91176676750183 60.988739013671875,86.57236170768738 " stroke="#000000" stroke-width="0"/>
    <polygon fill="#000000" id="svg_11" points="70.0368423461914,111.7933623790741 88.20010375976562,133.7908980846405 70.62488555908203,149.92085719108582 41.59965896606445,137.8922164440155 41.23619842529297,114.32810664176941 70.0368423461914,111.7933623790741 " stroke="#000000" stroke-width="0"/>
   </g>
   <text fill="#ffffff" font-family="serif" font-size="24" id="svg_13" stroke="#000000" stroke-width="0" text-anchor="middle" transform="matrix(0.951852 0 0 1.03792 0.0481482 -3.44783)" x="295.949416" xml:space="preserve" y="122.257875">Pruebas imágenes svg</text>
  </g>
 </g>
</svg>